<svg version="1.1" xmlns="http://www.w3.org/2000/svg" xmlns:xlink="http://www.w3.org/1999/xlink" x="0px" y="0px"
	 width="259.61px" height="379.99px" viewBox="0 0 259.61 379.99" style="enable-background:new 0 0 259.61 379.99;"
	 xml:space="preserve">
<style type="text/css">
	.st0{fill:#FEC601;}
</style>
<defs>
</defs>
<path class="st0" d="M0,19.35v33.83c0,10.68,8.66,19.35,19.34,19.35h148.4c10.68,0,19.34,8.66,19.34,19.35v196.27
	c0,10.68-8.66,19.35-19.34,19.35h-41.08c-10.68,0-19.34,8.66-19.34,19.35v33.83c0,10.68,8.66,19.35,19.34,19.35h56.09
	c42.45,0,76.85-34.41,76.85-76.85V72.52V19.35C259.61,8.66,250.95,0,240.27,0H19.34C8.66,0,0,8.66,0,19.35z"/>
</svg>
